# xmcd CD database file
#
# Track frame offsets:
#	150
#	14454
#	27605
#	40629
#	53080
#	62746
#	78792
#	94170
#	106629
#	120690
#	137280
#	149084
#
# Disc length: 2265 seconds
#
# Revision: 0
# Processed by: cddbd v1.4PL0 Copyright (c) Steve Scherf et al.
# Submitted via: CDex 1.40Release
#
DISCID=9808d70c
DTITLE=Charlie Robinson - Sing Me No Sad Songs
DYEAR=2001
DGENRE=Country
TTITLE0=Memory road
TTITLE1=Devils In The Wind
TTITLE2=Emma
TTITLE3=Muddy River
TTITLE4=The Drought
TTITLE5=A Single Rose
TTITLE6=Never Hear The Hi-Way Calling
TTITLE7=High California Desert
TTITLE8=Lynching Train
TTITLE9=Some Dreams Ain't Worth Dreaming
TTITLE10=Walnut Grove Church
TTITLE11=Sing Me No Sad Songs
EXTD=YEAR: 2001 ID3G: 2
EXTT0=
EXTT1=
EXTT2=
EXTT3=
EXTT4=
EXTT5=
EXTT6=
EXTT7=
EXTT8=
EXTT9=
EXTT10=
EXTT11=
PLAYORDER=
